<svg xmlns="http://www.w3.org/2000/svg" viewBox="0 -0.5 61 9" shape-rendering="crispEdges">
<metadata>Made with Pixels to Svg https://codepen.io/shshaw/pen/XbxvNj</metadata>
<path stroke="#4d23cd" d="M0 0h36M38 0h7M46 0h7M54 0h7M0 1h36M38 1h7M46 1h7M54 1h7M0 2h2M34 2h2M38 2h2M43 2h2M46 2h2M51 2h2M54 2h2M59 2h2M0 3h2M34 3h2M38 3h2M43 3h2M46 3h2M51 3h2M54 3h2M59 3h2M0 4h2M34 4h2M38 4h2M43 4h2M46 4h2M51 4h2M54 4h2M59 4h2M0 5h2M34 5h2M38 5h7M46 5h7M54 5h7M0 6h2M34 6h2M38 6h7M46 6h7M54 6h7M0 7h2M34 7h2M0 8h2M34 8h2" />
<path stroke="#eaa0e7" d="M2 2h32M2 3h32M2 4h32M2 5h32M2 6h32M2 7h32M2 8h32" />
</svg>